<?xml version="1.0" encoding="UTF-8" standalone="no"?>
<svg width="100px" height="23px" viewBox="0 0 100 23" version="1.1" xmlns="http://www.w3.org/2000/svg" xmlns:xlink="http://www.w3.org/1999/xlink">
    <!-- Generator: Sketch 3.6.1 (26313) - http://www.bohemiancoding.com/sketch -->
    <title>Logo</title>
    <desc>Created with Sketch.</desc>
    <defs></defs>
    <g id="Page-2" stroke="none" stroke-width="1" fill="none" fill-rule="evenodd">
        <g id="Logo">
            <path d="M40.9481268,0.631951466 L33.994665,0.631951466 L33.994665,17.1661301 L27.9169549,0.631951466 L21.8921292,0.631951466 L16.7024772,14.4593822 C16.1526795,10.9753339 12.545567,9.77096748 9.70610931,8.86461604 C7.82854824,8.26525996 5.84654888,7.37254537 5.86218136,6.39934011 C5.87714863,5.59509872 6.93017934,4.85205684 9.01229312,4.96381246 C10.4095711,5.03665319 11.6471981,5.15007184 14.0995024,6.33714278 L16.5172157,2.1273482 C14.2767814,0.985511681 11.1772258,0.26508701 8.64077218,0.259100101 L8.62181363,0.259100101 C5.66328295,0.259100101 3.19468096,1.22265978 1.66702145,2.80386887 C0.601684317,3.90878612 0.0259432707,5.30606407 0.00133042414,6.85667341 C-0.0362540578,8.99399979 0.748363578,10.5103507 2.39110478,11.7183758 C3.77940237,12.7344873 5.5555186,13.3983689 7.12176042,13.8809803 C9.0498776,14.4786733 10.6264302,14.9985365 10.6078043,16.1087755 C10.5984913,16.5172157 10.4431643,16.8887366 10.1527992,17.1927385 C9.67151828,17.6899846 8.93213506,17.8789048 7.91103454,17.9008568 C5.93868075,17.9354478 4.47654462,17.6287851 2.1496328,16.2567852 L0.00133042414,20.5201293 C2.32757703,21.8395775 5.07290724,22.6172104 7.8761109,22.6172104 L8.23798627,22.6172104 C10.6803124,22.5689825 12.6473445,21.8741685 14.2255601,20.6026156 C14.3123703,20.5324357 14.3968522,20.4605928 14.4786733,20.3870869 L13.7825289,22.2503459 L20.1020435,22.2503459 L21.1607285,19.0267282 C22.2703023,19.3989144 23.5332074,19.6127801 24.8746075,19.6127801 C26.1804188,19.6127801 27.4080677,19.4098904 28.4996807,19.0540019 L29.520116,22.2503459 L39.8235858,22.2503459 L39.8235858,15.5696211 L42.0720026,15.5696211 C47.50612,15.5696211 50.7224203,12.8059976 50.7224203,8.16714118 C50.7224203,3.00176946 47.6002475,0.631951466 40.9481268,0.631951466 L40.9481268,0.631951466 Z M24.8746075,14.7893273 C24.0633814,14.7893273 23.301381,14.6436459 22.6451493,14.3948566 L24.8493295,7.43873397 L24.8972247,7.43873397 L27.0568357,14.4118195 C26.4075887,14.6542893 25.6652121,14.7893273 24.8746075,14.7893273 L24.8746075,14.7893273 Z M41.35823,10.7857485 L39.8235858,10.7857485 L39.8235858,5.17867596 L41.35823,5.17867596 C43.4010963,5.17867596 45.0325289,5.8588553 45.0325289,7.95660156 C45.0325289,10.1092278 43.4010963,10.7857485 41.35823,10.7857485 L41.35823,10.7857485 Z" id="Fill-1" fill="#999999"></path>
            <path d="M63.0624368,5.99023469 C63.0624368,5.33998989 62.553217,4.9601538 61.5015167,4.9601538 L59.3868075,4.9601538 L59.3868075,7.04193497 L61.5989703,7.04193497 C62.5096456,7.04193497 63.0624368,6.68471609 63.0624368,5.99023469 L63.0624368,5.99023469 Z M62.6403597,2.79089724 C62.6403597,2.17324783 62.1634027,1.81536374 61.3059443,1.81536374 L59.3868075,1.81536374 L59.3868075,3.83228673 L61.2084908,3.83228673 C62.0652839,3.83228673 62.6403597,3.49568943 62.6403597,2.79089724 L62.6403597,2.79089724 Z M63.9737773,2.5740381 C63.9737773,3.50666542 63.4535815,3.98362248 62.8898143,4.27731361 C63.778205,4.58065031 64.3968522,5.08987015 64.3968522,6.13125965 C64.3968522,7.49727263 63.2799612,8.22434942 61.5876616,8.22434942 L58.0746767,8.22434942 L58.0746767,0.632949284 L61.4798973,0.632949284 C63.0085546,0.632949284 63.9737773,1.38131286 63.9737773,2.5740381 L63.9737773,2.5740381 Z" id="Fill-3" fill="#999999"></path>
            <path d="M68.8647491,2.49787132 L70.1772125,2.49787132 L70.1772125,8.22434942 L68.8647491,8.22434942 L68.8647491,7.33496089 C68.495889,7.87744133 67.9643845,8.34375499 67.0753286,8.34375499 C65.7851498,8.34375499 65.0367862,7.47598584 65.0367862,6.14223564 L65.0367862,2.49787132 L66.348917,2.49787132 L66.348917,5.75175616 C66.348917,6.64047948 66.7939439,7.15102975 67.5745703,7.15102975 C68.3335772,7.15102975 68.8647491,6.6191927 68.8647491,5.72980416 L68.8647491,2.49787132" id="Fill-4" fill="#999999"></path>
            <path d="M73.2458358,8.3334442 C72.432614,8.3334442 71.5322495,8.03975307 70.8164813,7.47598584 L71.4022005,6.58659731 C72.0201825,7.05357618 72.6923793,7.29138949 73.2784312,7.29138949 C73.8415332,7.29138949 74.1684849,7.05357618 74.1684849,6.67307488 L74.1684849,6.65145548 C74.1684849,6.20742643 73.5604811,6.05542547 72.8879517,5.84920973 C72.0421345,5.6103986 71.0981986,5.2634905 71.0981986,4.16821883 L71.0981986,4.14593422 C71.0981986,3.06263637 71.9985631,2.40041775 73.136741,2.40041775 C73.8525092,2.40041775 74.6341334,2.64987228 75.241472,3.05199298 L74.7206109,3.98362248 C74.1684849,3.64769038 73.5817679,3.44180725 73.1048108,3.44180725 C72.5949258,3.44180725 72.3025651,3.68028578 72.3025651,4.01621787 L72.3025651,4.03816987 C72.3025651,4.44993614 72.9205471,4.6242217 73.5927439,4.84041562 C74.4282502,5.10084615 75.3715209,5.48034964 75.3715209,6.51076313 L75.3715209,6.53271513 C75.3715209,7.73641637 74.4392262,8.3334442 73.2458358,8.3334442" id="Fill-5" fill="#999999"></path>
            <path d="M76.2386249,8.22434942 L77.5510883,8.22434942 L77.5510883,2.49787132 L76.2386249,2.49787132 L76.2386249,8.22434942 Z M76.1847427,1.6204566 L77.5943271,1.6204566 L77.5943271,0.373183971 L76.1847427,0.373183971 L76.1847427,1.6204566 Z" id="Fill-6" fill="#999999"></path>
            <path d="M80.0343249,8.22434942 L78.7221941,8.22434942 L78.7221941,2.49787132 L80.0343249,2.49787132 L80.0343249,3.38792507 C80.4028524,2.84544463 80.9346895,2.37913097 81.8234128,2.37913097 C83.1142568,2.37913097 83.8619552,3.24690011 83.8619552,4.58065031 L83.8619552,8.22434942 L82.5504896,8.22434942 L82.5504896,4.97046458 C82.5504896,4.08107605 82.1054627,3.57252142 81.325169,3.57252142 C80.5658294,3.57252142 80.0343249,4.10302805 80.0343249,4.99241658 L80.0343249,8.22434942" id="Fill-7" fill="#999999"></path>
            <path d="M88.8307567,4.9601538 C88.7422835,4.11367144 88.2437071,3.45278325 87.3766032,3.45278325 C86.5743574,3.45278325 86.0095924,4.07076526 85.8901868,4.9601538 L88.8307567,4.9601538 L88.8307567,4.9601538 Z M87.5505561,7.28107871 C88.1898249,7.28107871 88.6444974,7.04193497 89.1014981,6.59757331 L89.871481,7.28107871 C89.3290006,7.93132351 88.5796392,8.35439838 87.5286041,8.35439838 C85.8692326,8.35439838 84.5896972,7.15102975 84.5896972,5.37258528 C84.5896972,3.72385717 85.7491618,2.37913097 87.3882444,2.37913097 C89.2092624,2.37913097 90.1312463,3.81033473 90.1312463,5.47003885 C90.1312463,5.58944441 90.1196051,5.69720877 90.1102922,5.82725773 L85.901828,5.82725773 C86.0524985,6.76021766 86.7040738,7.28107871 87.5505561,7.28107871 L87.5505561,7.28107871 Z" id="Fill-8" fill="#999999"></path>
            <path d="M92.8739157,8.3334442 C92.0613592,8.3334442 91.1609946,8.03975307 90.445559,7.47598584 L91.0309457,6.58659731 C91.6499255,7.05357618 92.3217897,7.29138949 92.9078415,7.29138949 C93.4716087,7.29138949 93.7962322,7.05357618 93.7962322,6.67307488 L93.7962322,6.65145548 C93.7962322,6.20742643 93.1895588,6.05542547 92.5166968,5.84920973 C91.6708797,5.6103986 90.727609,5.2634905 90.727609,4.16821883 L90.727609,4.14593422 C90.727609,3.06263637 91.6279735,2.40041775 92.7661513,2.40041775 C93.4819195,2.40041775 94.2628785,2.64987228 94.8702171,3.05199298 L94.3496887,3.98362248 C93.7962322,3.64769038 93.210513,3.44180725 92.733556,3.44180725 C92.2243361,3.44180725 91.9313102,3.68028578 91.9313102,4.01621787 L91.9313102,4.03816987 C91.9313102,4.44993614 92.5489596,4.6242217 93.2221542,4.84041562 C94.0563302,5.10084615 95.0002661,5.48034964 95.0002661,6.51076313 L95.0002661,6.53271513 C95.0002661,7.73641637 94.0679714,8.3334442 92.8739157,8.3334442" id="Fill-9" fill="#999999"></path>
            <path d="M97.7545767,8.3334442 C96.9406897,8.3334442 96.041323,8.03975307 95.3248896,7.47598584 L95.9116066,6.58659731 C96.529256,7.05357618 97.2017854,7.29138949 97.7868394,7.29138949 C98.3502741,7.29138949 98.6768932,7.05357618 98.6768932,6.67307488 L98.6768932,6.65145548 C98.6768932,6.20742643 98.0695546,6.05542547 97.3973578,5.84920973 C96.5508754,5.6103986 95.6076047,5.2634905 95.6076047,4.16821883 L95.6076047,4.14593422 C95.6076047,3.06263637 96.507304,2.40041775 97.6461471,2.40041775 C98.3619153,2.40041775 99.1428742,2.64987228 99.7508781,3.05199298 L99.2290192,3.98362248 C98.6768932,3.64769038 98.0905088,3.44180725 97.6135517,3.44180725 C97.1043319,3.44180725 96.8106407,3.68028578 96.8106407,4.01621787 L96.8106407,4.03816987 C96.8106407,4.44993614 97.4296206,4.6242217 98.10215,4.84041562 C98.9366585,5.10084615 99.8805944,5.48034964 99.8805944,6.51076313 L99.8805944,6.53271513 C99.8805944,7.73641637 98.9479671,8.3334442 97.7545767,8.3334442" id="Fill-10" fill="#999999"></path>
            <path d="M67.3264462,16.0489064 C67.3264462,13.9142409 65.7608696,12.1341334 63.5543611,12.1341334 C61.3475201,12.1341334 59.8175323,13.878652 59.8175323,16.0133175 L59.8175323,16.0489064 C59.8175323,18.1849023 61.3837741,19.9633468 63.58995,19.9633468 C65.796791,19.9633468 67.3264462,18.2204912 67.3264462,16.0844952 L67.3264462,16.0489064 L67.3264462,16.0489064 Z M63.5543611,22.4904875 C59.7104332,22.4904875 56.9527966,19.6257517 56.9527966,16.0844952 L56.9527966,16.0489064 C56.9527966,12.5076499 59.7466872,9.60799053 63.58995,9.60799053 C67.4338779,9.60799053 70.1915146,12.4727263 70.1915146,16.0133175 L70.1915146,16.0489064 C70.1915146,19.5904954 67.3979565,22.4904875 63.5543611,22.4904875 L63.5543611,22.4904875 Z" id="Fill-11" fill="#F0AB00"></path>
            <path d="M77.3086185,22.2776196 L77.3086185,16.9569209 C77.3086185,15.6753898 76.7046059,15.0171625 75.6715316,15.0171625 C74.6407855,15.0171625 73.9812277,15.6753898 73.9812277,16.9569209 L73.9812277,22.2776196 L71.276808,22.2776196 L71.276808,12.7391437 L73.9812277,12.7391437 L73.9812277,14.0921851 C74.604864,13.2912698 75.4051142,12.5618647 76.775451,12.5618647 C78.8216433,12.5618647 80.0137034,13.9142409 80.0137034,16.1027886 L80.0137034,22.2776196 L77.3086185,22.2776196" id="Fill-12" fill="#F0AB00"></path>
            <path d="M85.9031584,14.7327843 C84.7832739,14.7327843 84.0535363,15.5330344 83.839338,16.7610159 L87.9144271,16.7610159 C87.7544436,15.5513278 87.0426667,14.7327843 85.9031584,14.7327843 L85.9031584,14.7327843 Z M90.5130781,18.451985 L83.8749268,18.451985 C84.1420095,19.6796339 84.9961418,20.3195679 86.2064951,20.3195679 C87.1135118,20.3195679 87.7727369,20.0348571 88.5197701,19.3410409 L90.067386,20.712043 C89.1776648,21.8142994 87.896799,22.4904875 86.1709063,22.4904875 C83.3058379,22.4904875 81.1888005,20.4805492 81.1888005,17.5619312 L81.1888005,17.5260098 C81.1888005,14.8036294 83.1278937,12.5618647 85.9031584,12.5618647 C89.0891916,12.5618647 90.5483343,15.0347906 90.5483343,17.7398755 L90.5483343,17.7754643 C90.5483343,18.042547 90.5307062,18.2025305 90.5130781,18.451985 L90.5130781,18.451985 Z" id="Fill-13" fill="#F0AB00"></path>
            <path d="M54.0587914,2.85741845 C54.2071337,2.85741845 54.322548,2.74200415 54.322548,2.59366186 C54.322548,2.42868927 54.223764,2.31327497 54.0587914,2.31327497 L53.3992337,2.31327497 L53.3992337,2.85741845 L54.0587914,2.85741845 L54.0587914,2.85741845 Z M52.6249268,1.7691315 L53.9267468,1.7691315 C54.7346469,1.7691315 55.0975201,1.98366239 55.0975201,2.47791496 C55.0975201,2.82415784 54.9325475,3.02205843 54.6029349,3.10454473 C54.9159172,3.20332872 55.0313315,3.33504071 55.0313315,3.5824996 L55.0313315,3.89548188 C55.0313315,4.29128306 55.0476292,4.37376936 55.1630435,4.45625565 L54.3391783,4.45625565 C54.2726571,4.35747166 54.2563594,4.27498537 54.2563594,4.12631047 L54.2563594,3.73084189 C54.2563594,3.4667527 54.1738731,3.40156192 53.8608909,3.40156192 L53.3992337,3.40156192 L53.3992337,4.45625565 L52.6249268,4.45625565 L52.6249268,1.7691315 L52.6249268,1.7691315 Z M51.8170268,3.15377042 C51.8170268,4.25802246 52.6904502,5.13177851 53.7787372,5.13177851 C54.8500612,5.13177851 55.7238173,4.24172476 55.7238173,3.15377042 C55.7238173,2.09907669 54.8500612,1.19239263 53.7950349,1.19239263 C52.6904502,1.19239263 51.8170268,2.04951839 51.8170268,3.15377042 L51.8170268,3.15377042 Z M56.3008887,3.15377042 C56.3008887,4.55503965 55.1630435,5.69255229 53.7787372,5.69255229 C52.360505,5.69255229 51.2399553,4.55503965 51.2399553,3.13780533 C51.2399553,1.7528338 52.3774679,0.63161886 53.8119978,0.63161886 C55.1630435,0.63161886 56.3008887,1.7857618 56.3008887,3.15377042 L56.3008887,3.15377042 Z" id="Fill-14" fill="#999999"></path>
        </g>
    </g>
</svg>