<?xml version="1.0" encoding="UTF-8" standalone="no"?>
<svg width="17px" height="17px" viewBox="0 0 17 17" version="1.1" xmlns="http://www.w3.org/2000/svg" xmlns:xlink="http://www.w3.org/1999/xlink">
    <!-- Generator: Sketch 3.6.1 (26313) - http://www.bohemiancoding.com/sketch -->
    <title>Group 6</title>
    <desc>Created with Sketch.</desc>
    <defs></defs>
    <g id="Page-2" stroke="none" stroke-width="1" fill="none" fill-rule="evenodd">
        <g id="Group-6" transform="translate(1.000000, 1.000000)">
            <circle id="Oval-3" stroke="#6E6E6E" stroke-width="2" cx="7.5" cy="7.5" r="7.5"></circle>
            <path d="M4.5798,4 L3,7.1086 L3.8202,7.5178 L5.4,4.4092 L4.5798,4 Z M10.5828,8.0494 L10.755,7.6558 L9.438,4.9102 L6.6588,4.1458 L6.315,5.0026 L5.5854,5.0026 L5.3844,5.3944 L6.1578,5.3944 L5.5422,6.9298 L6.4932,6.9298 L7.6488,5.8852 L10.755,8.5876 C10.755,8.5876 10.9452,9.3256 10.2312,9.1492 L8.4756,7.8166 C8.4756,7.8166 8.256,7.6006 8.238,8.0122 L10.0518,9.4792 C10.0518,9.4792 10.104,10.0516 9.609,9.8356 L8.1468,8.6788 C8.1468,8.6788 7.7988,8.5612 7.8726,8.8948 L9.3396,10.0576 C9.3396,10.0576 9.48,10.6288 8.9502,10.492 L7.6752,9.4696 C7.6752,9.4696 7.3638,9.4108 7.488,9.7378 C7.5066,9.7966 8.3796,10.4494 8.3796,10.4494 C8.3796,10.4494 8.2422,10.855 8.0478,10.738 C8.046,10.7416 7.9152,10.6456 7.7106,10.4842 C7.6926,10.4002 7.653,10.3162 7.584,10.249 C7.4928,10.159 7.38,10.1236 7.278,10.1326 L7.2144,10.0804 C7.254,9.9208 7.2042,9.7324 7.0704,9.6004 C6.9192,9.4516 6.7146,9.4276 6.5628,9.517 L6.5448,9.5014 C6.6708,9.3058 6.6528,9.04 6.4848,8.875 C6.3102,8.7034 6.0468,8.7118 5.8764,8.8804 L5.874,8.878 C6.0156,8.6806 6.0012,8.3992 5.826,8.2276 C5.6568,8.062 5.4066,8.0668 5.235,8.2198 C4.9992,7.9606 4.788,7.7038 4.6248,7.4632 L4.4418,7.882 C4.4418,7.882 4.662,8.1214 5.0034,8.4724 L4.7748,8.7394 C4.6062,8.9362 4.6188,9.2434 4.8018,9.424 C4.98,9.5974 5.2482,9.5878 5.418,9.4126 C5.2704,9.61 5.2848,9.8974 5.4612,10.0708 C5.64,10.246 5.9118,10.2364 6.0822,10.0558 C5.9712,10.231 6.0024,10.4836 6.1722,10.6498 C6.3462,10.8208 6.5934,10.8298 6.7446,10.6852 C6.7188,10.813 6.7638,10.9654 6.8766,11.0758 C7.0314,11.2288 7.2528,11.2426 7.3686,11.1058 L7.6134,10.8196 C7.7298,10.9 7.8414,10.9738 7.9452,11.032 C7.9452,11.032 8.3838,11.2012 8.6034,10.5964 C8.6034,10.6594 8.8044,10.7572 8.8044,10.7572 C8.8044,10.7572 9.4998,11.0926 9.6282,10.228 C9.6648,10.267 10.3782,10.3258 10.3782,9.5026 C10.3782,9.5218 11.5428,9.3808 10.8534,8.296 C10.8426,8.2858 10.7424,8.194 10.5828,8.0494 Z M10.4226,4 L9.6,4.4176 L11.1774,7.6 L12,7.1824 L10.4226,4 Z" id="Fill-106" fill="#6E6E6E"></path>
        </g>
    </g>
</svg>